<svg width="362" height="373" viewBox="0 0 362 373" fill="none" xmlns="http://www.w3.org/2000/svg">
<path d="M116.537 21H43.5368C18.0368 21 20.0368 16.5 20.0368 50.5V336.5C20.0368 355.5 20.0368 351.5 49.0368 351.5H116.037M162 351.5H188.537C215.037 348.5 256.537 322 256.537 270V211.5M256.537 163.5V91" stroke="white" stroke-width="40"/>
<path d="M205.537 44C215.87 46.8333 236.637 60.5 237.037 92.5M261.537 44C272.537 58 275.037 68.5 276.037 91.5" stroke="white"/>
<path d="M205.037 44L261.964 44.3224" stroke="white" stroke-linecap="round"/>
<path d="M256.537 96.5C256.537 86.5 255.037 74 249.537 60" stroke="white" stroke-width="40"/>
<path d="M222.037 49.5H259.537L264.037 57.5L234.037 62.5L224.037 48.5" stroke="white" stroke-width="10"/>
<path d="M236.484 56.7828C237.045 56.6789 237.61 56.3882 238.151 56.2146C239.919 55.6469 241.708 55.1471 243.523 54.7517C245.268 54.3712 247.083 54.2741 248.868 54.3468C248.979 54.3513 250.084 54.3459 249.66 54.5578C248.536 55.1198 247.292 55.5954 246.051 55.8097C245.305 55.9385 244.533 55.9434 243.781 56.0581C242.655 56.2299 241.549 56.3957 240.41 56.4187C239.884 56.4294 239.361 56.4668 238.838 56.5242C238.769 56.5318 238.561 56.5378 238.631 56.5378C238.888 56.5378 239.402 56.3795 239.58 56.3337C242.083 55.6874 244.592 55.1746 247.126 54.6734C247.338 54.6314 247.557 54.5679 247.776 54.5816C248.012 54.5964 248.244 54.6454 248.473 54.7074C248.605 54.7431 249.228 54.8564 249.303 55.017C249.315 55.0423 249.256 55.0508 249.228 55.0545C248.924 55.0943 248.616 55.0872 248.31 55.0953C247.35 55.1206 246.407 55.0894 245.452 54.9898C243.594 54.7962 241.763 54.6025 239.893 54.5816C238.484 54.5658 237.081 54.6795 235.674 54.7006C235.39 54.7049 235.078 54.6924 234.8 54.7619C234.736 54.7778 234.904 54.8422 234.96 54.8776C235.158 55.0041 235.318 55.1522 235.416 55.3709C235.522 55.6074 235.47 55.8408 235.735 55.9594C235.965 56.0622 235.861 56.2911 236.048 56.4017C236.429 56.6269 236.363 56.1444 236.307 55.9118C236.248 55.6649 236.145 55.4392 235.939 55.2824C235.884 55.2403 235.688 55.163 235.749 55.1974C236.085 55.3881 236.466 55.521 236.821 55.6737C237.728 56.0647 239.116 55.5722 239.978 55.245C240.55 55.0276 240.115 55.0362 239.866 55.0749C239.37 55.1519 238.884 55.2959 238.399 55.4219C237.948 55.5394 237.623 55.6792 237.212 55.4287C237.148 55.3901 236.647 55.143 236.817 55.1157C237.09 55.072 237.366 55.0626 237.637 55.0068C237.692 54.9956 237.783 55.013 237.797 54.9592C237.844 54.7791 237.431 54.8882 237.246 54.8708C236.478 54.7986 235.754 54.789 235.055 54.4557C234.827 54.347 234.587 54.2601 234.34 54.2107" stroke="white" stroke-linecap="round"/>
<path d="M249.466 54.5782C250.107 54.5633 250.726 54.5071 251.365 54.5782" stroke="white" stroke-linecap="round"/>
<path d="M220.133 51.5774C219.395 50.8393 218.678 50.0823 217.996 49.2912C217.02 48.1573 216.16 46.5825 214.812 45.8482C213.693 45.2389 212.41 45.1694 211.206 44.8276C210.483 44.6226 209.775 44.5721 209.028 44.5962C209.003 44.597 208.973 44.5874 208.953 44.603C208.892 44.6522 209.104 44.6482 209.181 44.6642C209.465 44.7234 209.75 44.7754 210.029 44.8548C210.623 45.0241 211.265 45.2672 211.818 45.542C212.339 45.8006 212.712 46.2601 213.186 46.5831C214.076 47.1894 215.167 47.4271 216.01 48.1072C216.447 48.4599 216.895 48.9465 217.18 49.4341C217.4 49.8114 216.86 49.3534 216.765 49.2912C215.842 48.6882 215.059 47.9178 214.601 46.9029C214.488 46.6527 214.431 46.3719 214.206 46.1918C213.916 45.9593 213.516 45.8109 213.172 45.6849C212.995 45.6202 212.447 45.4835 212.628 45.5352C212.942 45.6248 213.235 45.7223 213.526 45.8754C213.992 46.1201 214.384 46.459 214.887 46.6307C215.006 46.6712 215.94 46.8043 215.513 46.8008C214.628 46.7935 214.092 46.4711 213.322 46.0455C212.07 45.3538 210.655 44.5911 209.246 44.256C209.155 44.2344 208.319 44.0604 208.817 44.1947C209.392 44.3497 209.948 44.3512 210.539 44.3512C212.493 44.3512 214.44 44.4049 216.391 44.535C217.306 44.596 218.226 44.5525 219.14 44.6234C219.908 44.6831 220.672 44.7899 221.439 44.8616C221.537 44.8707 222.791 44.8527 222.133 44.9909C220.898 45.2504 219.604 45.2141 218.35 45.297C216.822 45.3981 215.277 45.5392 213.744 45.474C213.338 45.4567 212.998 45.3838 212.631 45.2154C212.348 45.0855 212.292 45.0441 212.648 45.0385C214.422 45.0104 216.188 44.8081 217.956 44.6574C218.027 44.6513 218.116 44.6776 218.17 44.6302C218.336 44.4853 217.73 44.6072 217.51 44.62C216.794 44.6619 215.952 44.7157 215.278 44.9875C214.985 45.1056 215.752 45.4198 216.037 45.5556C217.115 46.0691 218.234 46.47 219.33 46.9403C220.132 47.2845 219.65 47.3283 219.072 47.3724C218.386 47.4246 217.638 47.4673 216.952 47.386C216.745 47.3615 215.602 46.8849 216.152 46.5831C216.655 46.3072 217.313 46.2715 217.867 46.202C218.029 46.1817 218.191 46.1644 218.354 46.151C218.592 46.1313 218.58 46.1481 218.347 46.1986C217.94 46.2869 217.491 46.2962 217.098 46.4402C216.651 46.6041 216.999 46.8229 217.282 46.8791C218.02 47.0257 218.8 46.8391 219.521 46.6919C220.343 46.5239 221.168 46.3415 221.984 46.1442C222.063 46.1251 223.143 45.8781 222.202 45.923C220.77 45.9914 219.343 46.2567 217.939 46.5218C217.121 46.6762 214.675 47.1681 215.499 47.0526C216.59 46.8997 217.694 46.6307 218.769 46.4096C219.378 46.2841 219.986 46.1497 220.596 46.0251C221.035 45.9354 221.472 45.8304 221.916 45.7665C222.073 45.7439 222.396 45.6078 222.392 45.7665C222.388 45.9554 222.08 45.9827 221.909 46.0625C221.184 46.4005 220.44 46.6443 219.65 46.7804C219.029 46.8873 218.072 46.9881 217.547 46.4878C217.206 46.1627 217.662 45.9166 217.905 45.8142C218.044 45.7552 218.189 45.7077 218.337 45.6713C218.517 45.6266 218.712 45.5991 218.466 45.7665C217.954 46.1159 217.375 46.3547 216.921 46.7906C216.239 47.4464 217.597 47.6504 218.017 47.7602C219.317 48.0998 219.732 49.74 220.113 50.8596C220.396 51.6932 220.221 50.5933 220.208 50.516C220.094 49.8556 219.901 49.2044 219.385 48.7434C218.54 47.9895 218.635 49.3349 219.044 49.7709C219.123 49.8551 219.219 49.923 219.316 49.9852C219.35 50.0069 219.435 50.0594 219.432 50.0193C219.428 49.9566 219.355 49.9201 219.31 49.8764C218.908 49.4855 218.42 49.1634 218.058 48.7332C217.556 48.1372 218.583 48.6203 218.643 48.6516C219.384 49.0405 220.046 49.537 220.813 49.8832C221.07 49.9987 221.863 50.2265 221.582 50.2302C221.301 50.2338 221.013 50.1104 220.773 49.9784C220.646 49.9086 220.337 49.7057 220.358 49.8491C220.41 50.2175 220.704 50.6013 221.079 50.6861C221.777 50.8442 222.332 50.1886 222.671 49.6858C222.887 49.3666 223.327 48.4446 222.477 49.0564C222.24 49.2274 222.026 49.4301 221.814 49.6314C221.612 49.8229 221.426 50.0308 221.235 50.2336C221.142 50.3325 221.098 50.5214 220.963 50.5364C220.849 50.549 221.083 50.3411 221.143 50.2438C221.691 49.364 221.902 49.0518 222.446 48.0698C222.799 47.4338 223.739 45.4907 223.277 46.0523C222.494 47.0034 222.022 48.289 221.559 49.4103C221.508 49.5333 220.826 51.4339 221.405 49.679C221.763 48.598 222.251 47.4873 222.453 46.3619C222.467 46.2841 222.492 46.0963 222.419 46.1272C222.278 46.1872 222.221 46.364 222.14 46.4946C222.005 46.7119 221.886 46.9387 221.773 47.1682C221.654 47.4097 221.549 47.6578 221.446 47.9065C221.37 48.0912 221.308 48.2815 221.235 48.4679C221.213 48.5242 221.186 48.6907 221.164 48.6346C221.025 48.2881 221.396 47.2411 221.439 46.9029C221.569 45.8967 221.166 46.6182 220.905 47.1002C220.486 47.8776 220.217 48.9226 219.677 49.6246C219.426 49.9513 219.671 48.7962 219.738 48.3896C219.747 48.3348 219.899 47.1473 220.045 47.9984C220.151 48.6189 220.289 49.3912 220.238 50.0227C220.208 50.4014 219.856 49.3599 219.738 48.9986C219.569 48.4785 219.565 48.086 220.215 48.1549C220.538 48.1892 220.781 48.341 221.086 48.4134C221.174 48.4345 220.888 48.4272 220.824 48.4917C220.461 48.8539 220.318 50.0993 220.973 49.2742C221.24 48.938 221.438 48.5562 221.644 48.1821C221.76 47.9709 221.481 48.636 221.409 48.8659C221.187 49.571 221.339 48.995 221.297 48.6992" stroke="white" stroke-linecap="round"/>
<path d="M219.031 47.9031C219.226 47.8282 220.329 47.1331 220.307 47.0764C220.227 46.8776 219.951 46.5715 219.834 46.3925C219.611 46.0527 219.284 45.5545 218.827 45.525C218.55 45.5071 218.378 45.8939 218.258 46.0761C217.976 46.5062 217.709 46.7619 217.262 47.0049C217.118 47.0829 216.937 47.1012 216.809 47.2023C216.571 47.39 216.394 47.6626 216.214 47.9031" stroke="white" stroke-linecap="round"/>
<path d="M115.229 1.5756H130.164" stroke="white" stroke-linecap="round"/>
<path d="M116.101 15.2786C117.329 12.3059 119.429 9.54963 121.821 7.41492C122.834 6.51092 123.968 5.6905 125.086 4.9201C125.726 4.47882 126.391 4.0542 127.073 3.67981C127.872 3.241 128.652 2.80184 129.422 2.31693C129.732 2.12213 130.055 1.88659 130.369 1.72957" stroke="white" stroke-linecap="round"/>
<path d="M116.05 13.9442C116.989 12.3794 117.728 10.7346 118.416 9.04583C118.983 7.65571 119.554 6.27241 120.176 4.90584C120.332 4.56131 120.595 4.00021 120.752 3.61994C120.869 3.33677 120.854 3.34159 120.712 3.59428C120.099 4.68141 119.498 5.77498 118.884 6.86178C118.422 7.68022 117.974 8.50443 117.669 9.39653C117.576 9.67119 117.503 9.9444 117.49 10.2348C117.488 10.2721 117.486 10.382 117.476 10.346C117.423 10.157 117.394 9.78276 117.384 9.66169C117.2 7.33482 117.212 4.93127 117.384 2.60205C117.424 2.07288 117.371 2.17738 116.922 2.27131C116.915 2.27294 116.594 2.32435 116.609 2.34544C116.728 2.51103 117.538 2.46303 117.669 2.46519C118.802 2.48381 119.914 2.25049 121.045 2.24279C122.561 2.23248 124.07 2.33459 125.584 2.24279C126.509 2.18679 127.412 1.91178 128.319 1.74383C128.393 1.73006 129.114 1.55062 128.923 1.68395C128.347 2.08729 127.806 2.5945 127.187 2.92139C126.124 3.48266 125.138 4.1445 124.119 4.77468C123.731 5.01471 123.373 5.28709 123.004 5.55592C122.627 5.83089 122.208 6.05882 121.847 6.35141C121.124 6.93596 120.366 7.42448 119.722 8.09351C119.545 8.27786 119.441 8.54404 119.306 8.7607C119.112 9.07182 118.832 9.38793 118.576 9.65029C118.216 10.0199 117.866 10.3821 117.527 10.7737C117.298 11.0383 117.06 11.2967 116.837 11.5663C116.771 11.6459 116.706 11.907 116.654 11.8172C116.603 11.7268 116.671 11.3625 116.677 11.3126C116.728 10.8901 116.822 10.4729 116.863 10.0495C116.901 9.65035 116.876 9.22597 116.791 8.83483C116.54 7.67085 116.928 6.46722 117.076 5.30216C117.154 4.68955 117.197 3.823 116.563 3.43746C116.432 3.35738 116.278 3.32286 116.161 3.21791C116.055 3.1226 116.065 3.13931 116.084 3.31771C116.171 4.13416 116.322 4.94201 116.429 5.75551C116.494 6.24762 116.537 5.99518 116.552 5.62435C116.575 5.04348 116.563 4.46057 116.563 3.8794C116.563 3.61706 116.524 2.83497 116.575 3.09246C116.682 3.64345 116.607 4.27104 116.615 4.82601C116.626 5.6785 116.673 6.51476 116.9 7.34079C116.943 7.49929 117.054 8.05639 117.282 8.12203C117.536 8.19526 117.808 7.50228 117.852 7.40352C118.089 6.87076 118.273 6.30065 118.234 5.70989C118.205 5.26289 117.971 4.86822 117.912 4.42683C117.895 4.30059 117.873 4.15458 117.937 4.03907C117.964 3.99166 118.174 3.54581 118.157 3.54581C118.001 3.54581 117.941 3.7736 117.852 3.90221C117.59 4.28095 117.405 4.58773 117.208 5.01419C116.857 5.77018 116.669 6.54702 116.706 7.38071C116.716 7.60156 116.703 8.50955 116.925 8.65806C117.046 8.73828 117.051 8.39323 117.074 8.25033C117.153 7.74318 117.175 7.31701 117.17 6.79335C117.157 5.34864 116.836 4.0151 116.512 2.62486C116.453 2.37461 116.474 2.5879 116.506 2.7161C116.652 3.29492 116.932 3.83132 117.076 4.40973C117.283 5.23777 117.142 6.11923 116.979 6.94162C116.893 7.37989 116.8 8.2071 116.432 8.54401C115.864 9.06369 114.993 8.6339 114.573 8.16194C114.556 8.14319 114.354 7.9085 114.428 7.84261C114.491 7.78527 114.73 8.12274 114.761 8.15909C115.158 8.62216 115.57 8.19768 116.019 7.90819C117.153 7.17631 118.26 6.31149 119.138 5.27935C119.846 4.44724 118.996 4.97961 118.71 5.19667C118.363 5.46083 118.26 5.56244 117.955 5.83819C117.952 5.84057 117.72 6.09176 117.826 5.91518C118.099 5.46371 118.424 5.05602 118.645 4.57225C118.682 4.48989 119.24 2.88089 118.804 2.97271C118.67 3.00095 119.061 3.07833 119.198 3.09246C119.849 3.15997 120.507 3.17956 121.159 3.23502C121.431 3.25812 121.813 3.24004 121.382 3.4175C120.817 3.64976 120.243 3.86018 119.677 4.09039C119.545 4.14413 119.163 4.32881 119.278 4.24436C119.831 3.83759 120.387 3.43341 120.943 3.02973C121.02 2.97346 121.659 2.36149 121.43 2.89287C120.833 4.28071 120.059 5.61023 119.369 6.95302C119.139 7.39943 118.358 8.66822 118.704 8.30451C119.398 7.57505 120.048 6.80062 120.715 6.04633C121.548 5.1028 122.368 4.12973 123.292 3.27209C123.608 2.97899 123.836 2.8934 123.358 3.40039C122.304 4.51655 121.067 5.45407 119.871 6.40844C119.667 6.5708 119.458 6.72694 119.26 6.896C119.204 6.94404 119.041 7.02938 119.109 7.05852C119.199 7.09697 119.293 6.99088 119.38 6.94732C119.646 6.8149 119.905 6.66954 120.167 6.53104C121.57 5.79057 122.983 5.06958 124.393 4.3413C125.502 3.76796 126.738 3.23502 127.751 2.488C127.862 2.40674 127.512 2.62161 127.392 2.68759C126.795 3.01573 126.325 3.25627 125.676 3.52014C124.46 4.01406 123.177 4.40668 121.878 4.60931C121.784 4.62398 121.525 4.66466 121.593 4.59791C121.813 4.38057 122.115 4.26508 122.385 4.1132C123.64 3.40693 124.931 2.73158 126.274 2.20858C126.436 2.14554 126.846 1.92726 126.782 2.08883C126.684 2.33618 126.369 2.42747 126.143 2.56783C125.133 3.19535 124.056 3.71107 122.973 4.19874C122.81 4.2721 122.609 4.28906 122.482 4.41543C122.343 4.5547 122.848 4.26823 123.03 4.19303C124.006 3.78975 125.029 3.41682 125.955 2.90428C125.992 2.88409 126.087 2.82803 126.046 2.81874C125.951 2.79694 125.852 2.84072 125.756 2.85866C125.133 2.97484 124.513 3.11092 123.891 3.22932C122.853 3.42669 121.8 3.58132 120.777 3.85089C120.046 4.0437 122.097 3.01986 122.847 2.92139C123.053 2.8944 122.772 3.42518 122.722 3.52585" stroke="white" stroke-linecap="round"/>
<path d="M118.103 2.60205C118.15 2.62325 118.421 2.68754 118.411 2.75601C118.368 3.03475 117.872 3.30602 117.647 3.40039C117.644 3.40143 117.288 3.51715 117.282 3.47452C117.255 3.30037 117.536 3.23051 117.669 3.11527C117.715 3.0755 118.158 2.68961 118.228 2.63341C118.296 2.57873 118.458 2.42463 118.351 2.63626C117.715 3.89083 116.652 4.88954 116.078 6.18604C116.032 6.29074 115.603 7.27357 115.759 7.40352C115.878 7.50264 116.158 7.0994 116.332 7.17257C116.621 7.2935 116.707 7.82777 116.768 8.09351" stroke="white" stroke-linecap="round"/>
<path d="M121.192 8.74941C120.799 9.11002 120.527 9.93687 120.268 10.3925C119.675 11.4364 119.268 12.5544 118.855 13.6786C118.379 14.9731 118.027 16.3067 117.447 17.5613C117.044 18.4299 116.383 19.3609 116.185 20.2998C116.012 21.1201 116.584 18.6693 116.85 17.8743C117.631 15.5397 118.67 13.2883 119.706 11.0575C119.842 10.764 119.985 10.4644 120.136 10.1773C120.185 10.085 120.235 9.99381 120.288 9.90347C120.32 9.84707 120.342 9.78102 120.39 9.73721C120.422 9.7087 120.361 9.81679 120.341 9.85457C119.521 11.4686 118.594 13.039 117.691 14.6077C117.459 15.0104 117.218 15.4077 116.987 15.8107C116.874 16.0082 116.703 16.5248 116.503 16.6665C116.185 16.8905 116.521 15.8819 116.625 15.5075C116.971 14.2588 117.468 13.0569 118.024 11.8888C118.292 11.3249 118.468 11.0015 118.757 10.4903C118.849 10.3281 118.983 9.85125 119.06 10.0208C119.115 10.1419 118.992 10.2785 118.943 10.4023C118.593 11.2904 118.166 12.146 117.74 12.9989C117.663 13.1526 117.116 14.2143 116.982 14.5148C116.951 14.5855 116.887 14.6605 116.909 14.7349C116.959 14.9123 117.123 14.432 117.202 14.2654C117.534 13.5687 117.802 12.8318 118.024 12.0942" stroke="white" stroke-linecap="round"/>
<path d="M115.669 28.0353C116.472 23.7853 117.012 19.3562 118.411 15.2457C119.385 12.3845 120.936 9.85647 122.434 7.25978C122.446 7.23853 123.234 6.04222 123.234 6.41915" stroke="white" stroke-linecap="round"/>
<path d="M121.544 9.1015C122.179 8.15808 122.99 7.32628 123.765 6.49997C124.78 5.41737 125.808 4.32152 126.933 3.35075C127.049 3.25117 128.244 2.16768 128.322 2.32384" stroke="white" stroke-linecap="round"/>
<path d="M138.537 364V187M354.537 20C305.203 20.1667 198.04 20 172.037 20C134.537 20 138.537 18 138.537 43V187M138.537 187H335.537" stroke="white" stroke-width="38"/>
<path d="M124.537 364C124.537 368 123.537 368 137.537 368C153.537 368 152.537 368 152.537 364M351.537 6C356.537 6 356.037 6 356.037 19.5C356.037 36 356.037 34 349.537 34" stroke="white" stroke-width="10"/>
<path d="M329.537 173C339.037 173 338.037 171.5 338.037 187C338.037 203.5 336.037 201 330.037 201" stroke="white" stroke-width="10"/>
</svg>
